<svg width="40" height="40" viewBox="0 0 40 40" fill="none" xmlns="http://www.w3.org/2000/svg">
<rect width="40" height="40" rx="6" fill="white"/>
<path fill-rule="evenodd" clip-rule="evenodd" d="M14.1667 13.3333C13.9457 13.3333 13.7338 13.4211 13.5775 13.5774C13.4212 13.7337 13.3334 13.9456 13.3334 14.1667V25.4881L15.2442 23.5774C15.4004 23.4211 15.6124 23.3333 15.8334 23.3333H25.8334C26.0544 23.3333 26.2664 23.2455 26.4227 23.0892C26.579 22.933 26.6667 22.721 26.6667 22.5V14.1667C26.6667 13.9456 26.579 13.7337 26.4227 13.5774C26.2664 13.4211 26.0544 13.3333 25.8334 13.3333H14.1667ZM12.399 12.3989C12.8678 11.93 13.5037 11.6667 14.1667 11.6667H25.8334C26.4965 11.6667 27.1323 11.93 27.6012 12.3989C28.07 12.8677 28.3334 13.5036 28.3334 14.1667V22.5C28.3334 23.163 28.07 23.7989 27.6012 24.2678C27.1323 24.7366 26.4965 25 25.8334 25H16.1786L13.0893 28.0892C12.851 28.3276 12.4926 28.3989 12.1812 28.2699C11.8698 28.1409 11.6667 27.837 11.6667 27.5V14.1667C11.6667 13.5036 11.9301 12.8677 12.399 12.3989Z" fill="#344054"/>
</svg>
